<svg width="1080" height="608" viewBox="0 0 1080 608" fill="none" xmlns="http://www.w3.org/2000/svg">
<rect width="1080" height="607" transform="translate(0 0.253906)" fill="#F6F9FD"/>
<path d="M709.891 351.683C710.062 354.728 708.596 355.427 706.125 355.352C701.526 355.213 696.918 355.164 692.32 355.305C689.293 355.397 688.174 354.31 688.206 351.19C688.327 339.601 688.281 328.008 688.167 316.418C688.126 312.302 685.68 309.471 682.198 308.947C678.146 308.338 674.902 310.23 673.409 314.112C672.675 316.019 672.401 318.002 672.406 320.055C672.428 329.171 672.427 338.286 672.38 347.401C672.335 355.988 673.605 355.281 664.43 355.283C660.837 355.284 657.243 355.199 653.653 355.289C651.262 355.35 650.306 354.552 650.322 351.965C650.436 333.853 650.456 315.739 650.364 297.627C650.348 294.643 651.106 293.352 654.309 293.553C658.335 293.804 662.391 293.697 666.429 293.582C669.122 293.505 670.091 294.296 669.326 297.153C668.535 300.109 667.12 302.782 666.026 305.59C670.332 307.478 672.172 306.763 673.705 302.679C676.357 295.614 681.666 291.739 688.697 291.735C695.799 291.732 701.241 295.839 703.68 303.087C704.256 304.796 704.531 306.485 707.067 306.486C709.37 306.488 710.406 305.568 711.29 303.541C714.881 295.305 722.123 290.818 729.782 291.849C739.958 293.219 745.789 298.802 747.272 308.535C748.603 317.267 747.674 326.051 747.891 334.808C748.03 340.431 747.823 346.063 747.962 351.687C748.025 354.251 747.229 355.4 744.54 355.333C739.491 355.205 734.436 355.207 729.387 355.303C726.807 355.352 725.844 354.398 725.869 351.74C725.975 340.487 725.958 329.232 725.883 317.979C725.841 311.707 722.441 308.259 717.225 308.937C713.23 309.455 710.391 312.74 710.207 317.959C709.918 326.164 710.01 334.382 709.945 342.595C709.922 345.521 709.913 348.446 709.891 351.683Z" fill="black"/>
<path d="M478.667 334.16C471.089 335.933 463.819 335.951 456.632 333.727C455.024 333.229 453.721 333.31 452.57 334.529C451.762 335.385 451.101 336.343 451.744 337.493C452.559 338.949 454.073 339.13 455.623 339.131C464.944 339.138 474.265 339.13 483.586 339.163C487.632 339.178 491.611 339.684 495.415 341.078C503.182 343.923 507.663 350.203 507.609 358.124C507.555 366.198 502.875 372.475 494.892 375.159C492.163 376.077 489.37 376.584 486.45 376.576C473.562 376.538 460.673 376.544 447.785 376.566C445.575 376.57 443.425 376.309 441.333 375.655C436.874 374.259 434.029 370.984 433.745 366.791C433.437 362.248 435.523 358.988 439.729 356.88C440.921 356.283 442.463 356.137 443.167 354.833C444.203 352.914 443.168 350.275 440.986 349.485C437.724 348.304 435.425 346.382 435.105 342.882C434.755 339.055 436.208 335.979 439.622 333.877C440.773 333.168 442.023 332.576 443.291 332.077C446.581 330.783 447.642 326.826 444.809 324.886C436.237 319.016 437.309 306.591 444.305 299.782C451.175 293.096 459.835 291.164 469.283 291.825C471.895 292.008 474.518 292.555 477.046 293.238C482.719 294.773 487.237 297.839 489.73 303.104C490.657 305.06 492.053 305.602 494.115 305.405C496.248 305.201 496.138 303.502 496.447 302.226C498.061 295.573 500.902 293.299 507.224 293.546C509.19 293.623 510.214 294.178 510.161 296.223C510.075 299.63 510.08 303.042 510.16 306.449C510.205 308.361 509.517 309.142 507.391 309.247C498.32 309.697 498.369 309.77 496.061 318.087C493.686 326.641 487.701 331.741 478.667 334.16ZM463.296 362.306C468.935 362.298 474.575 362.332 480.214 362.267C484.114 362.223 486.085 360.811 486.168 358.205C486.255 355.493 484.401 353.93 480.486 353.885C472.201 353.79 463.914 353.888 455.628 353.843C452.728 353.828 451.4 355.19 451.319 357.842C451.237 360.494 452.602 362.031 455.364 362.199C457.772 362.345 460.194 362.278 463.296 362.306ZM463.167 306.112C457.819 311.153 458.392 319.789 464.253 322.461C467.936 324.141 472.426 323.214 474.884 320.265C477.664 316.932 477.634 311.072 474.821 307.645C472.323 304.602 468.191 303.94 463.167 306.112Z" fill="black"/>
<path d="M378.596 270.533C384.698 270.521 390.485 270.566 396.269 270.481C398.938 270.443 399.829 271.606 399.731 274.136C399.581 278.027 399.554 281.934 399.731 285.822C399.858 288.605 398.785 289.471 395.995 289.446C383.744 289.335 371.49 289.488 359.24 289.344C356.245 289.309 355.194 290.195 355.383 293.142C355.612 296.691 355.54 300.268 355.407 303.826C355.318 306.181 356.022 307.257 358.642 307.248C368.381 307.213 378.121 307.433 387.859 307.363C390.366 307.345 391.397 308.046 391.326 310.541C391.218 314.323 391.212 318.112 391.328 321.894C391.41 324.574 390.418 325.609 387.563 325.565C378.263 325.423 368.957 325.633 359.658 325.451C356.471 325.389 355.259 326.183 355.366 329.511C355.601 336.851 355.345 344.206 355.475 351.551C355.522 354.192 354.806 355.429 351.879 355.35C346.325 355.199 340.762 355.266 335.204 355.338C332.795 355.369 331.781 354.517 331.787 352.011C331.851 325.848 331.841 299.684 331.799 273.521C331.795 271.402 332.447 270.629 334.745 270.637C349.256 270.686 363.768 270.587 378.596 270.533Z" fill="black"/>
<path d="M612.011 306.375C605.2 305.108 601.625 306.742 598.609 312.482C597.943 313.75 597.286 314.22 595.757 313.954C590.794 313.092 585.806 312.356 580.816 311.653C577.979 311.253 577.7 309.692 578.536 307.472C580.949 301.062 585.899 297.056 592.22 294.772C603.11 290.836 614.182 290.587 625.142 294.601C632.856 297.427 637.915 304.767 638.007 312.941C638.078 319.26 638.017 325.581 638.024 331.9C638.03 337.324 638.472 337.766 644.09 338.111C644.628 338.144 645.159 338.269 646.076 338.41C646.076 342.83 646.079 347.154 646.075 351.479C646.074 352.708 645.306 353.253 644.155 353.297C639.442 353.477 634.725 353.623 630.095 352.478C625.975 351.459 624.069 348.631 623.371 344.766C623.096 343.245 623.287 341.388 620.821 341.18C618.538 340.987 617.258 341.613 616.2 343.839C610.638 355.533 594.586 359 584.692 351.091C577.081 345.007 576.483 330.769 584.888 324.145C591.132 319.224 598.535 317.238 606.231 315.94C608.548 315.55 610.907 315.38 613.209 314.929C614.433 314.69 616.235 315.134 616.642 313.469C617.092 311.633 616.848 309.756 615.416 308.266C614.56 307.374 613.493 306.77 612.011 306.375ZM606.72 328.125C605.11 328.65 603.676 329.453 602.423 330.577C600.204 332.567 599.575 335.062 600.622 337.678C601.642 340.226 604.074 340.827 606.715 340.781C613.321 340.666 618.475 334.005 616.836 327.779C616.404 326.137 615.285 326.06 614.028 326.323C611.742 326.8 609.488 327.417 606.72 328.125Z" fill="black"/>
<path d="M546.122 302.421C546.121 291.807 546.121 281.488 546.121 270.94C553.338 270.354 560.225 270.432 567.112 270.61C568.79 270.654 569.368 271.676 569.34 273.232C568.991 292.285 570.643 311.413 568.536 330.38C566.412 349.504 554.136 355.986 536.586 355.305C528.958 355.01 521.764 353.295 515.878 348.186C508.821 342.06 506.239 334.044 505.925 325.11C505.87 323.544 506.504 322.775 508.112 322.412C513.97 321.092 519.804 319.67 525.637 318.244C527.715 317.737 528.561 318.497 528.493 320.527C528.373 324.132 528.586 327.701 529.793 331.159C531.426 335.834 534.21 337.599 539.184 337.063C542.927 336.66 544.952 334.094 545.544 329.465C546.682 320.562 545.754 311.628 546.122 302.421Z" fill="black"/>
<path d="M404.071 329.341C404.068 319.284 404.186 309.55 403.99 299.82C403.93 296.801 405.127 295.838 408.604 295.955C414.335 296.147 420.085 296.095 425.822 295.975C428.523 295.918 429.473 296.921 429.471 299.035C429.451 316.762 429.434 334.488 429.47 352.214C429.475 354.627 428.159 355.402 425.462 355.354C419.596 355.25 413.726 355.247 407.86 355.324C405.078 355.36 404.006 354.42 404.038 352.05C404.139 344.59 404.073 337.127 404.071 329.341Z" fill="black"/>
<path d="M404.018 282.478C404.019 279.087 404.074 275.996 404.001 272.908C403.96 271.199 404.845 270.512 406.907 270.521C413.558 270.552 420.211 270.549 426.862 270.481C428.854 270.461 429.494 271.168 429.471 272.704C429.409 276.823 429.409 280.943 429.463 285.062C429.483 286.597 428.713 287.407 426.841 287.412C420.19 287.43 413.537 287.502 406.889 287.407C402.679 287.347 404.417 284.563 404.018 282.478Z" fill="black"/>
</svg>
